<svg xmlns="http://www.w3.org/2000/svg" viewBox="0 0 1600 900" fill="none">
  <rect width="1600" height="900" fill="#02060f"/>
  <g stroke="#6ea8ff" stroke-opacity="0.22" stroke-width="2">
    <rect x="180" y="150" width="560" height="420" rx="14"/>
    <rect x="220" y="210" width="480" height="260" rx="8"/>
    <rect x="820" y="170" width="620" height="500" rx="16"/>
    <rect x="870" y="230" width="520" height="120" rx="10"/>
    <rect x="870" y="390" width="520" height="220" rx="10"/>
    <circle cx="310" cy="650" r="78"/>
    <circle cx="530" cy="650" r="78"/>
    <path d="M310 572V728M530 572V728M232 650H608"/>
  </g>
  <g fill="#6ea8ff" fill-opacity="0.2">
    <circle cx="260" cy="180" r="4"/>
    <circle cx="280" cy="180" r="4"/>
    <circle cx="300" cy="180" r="4"/>
    <circle cx="910" cy="200" r="4"/>
    <circle cx="930" cy="200" r="4"/>
    <circle cx="950" cy="200" r="4"/>
  </g>
  <g stroke="#6ea8ff" stroke-opacity="0.15">
    <path d="M905 275H1365"/>
    <path d="M905 425H1365"/>
    <path d="M905 465H1365"/>
    <path d="M905 505H1365"/>
    <path d="M905 545H1365"/>
  </g>
  <g font-family="monospace" font-size="28" fill="#6ea8ff" fill-opacity="0.2">
    <text x="230" y="255">FORTRAN IV</text>
    <text x="230" y="295">COBOL</text>
    <text x="230" y="335">PUNCH CARD INPUT</text>
    <text x="900" y="315">LINKING OBJECT MODULES...</text>
    <text x="900" y="455">ASSEMBLER LISTING</text>
  </g>
</svg>
